<!-- Save this as wave.svg in your public/images folder -->
<svg viewBox="0 0 1440 320" xmlns="http://www.w3.org/2000/svg">
  <path fill="#FEF6E4" fillOpacity="1" d="M0,256 C30,224 60,192 90,192 C120,192 150,224 180,240 C210,256 240,256 270,240 C300,224 330,192 360,192 C390,192 420,224 450,240 C480,256 510,256 540,240 C570,224 600,192 630,192 C660,192 690,224 720,240 C750,256 780,256 810,240 C840,224 870,192 900,192 C930,192 960,224 990,240 C1020,256 1050,256 1080,240 C1110,224 1140,192 1170,192 C1200,192 1230,224 1260,240 C1290,256 1320,256 1350,240 C1380,224 1410,192 1440,192 L1440,320 L0,320 Z"></path>
</svg>
